<svg width="594" height="861" viewBox="0 0 594 861" fill="none" xmlns="http://www.w3.org/2000/svg">
<path d="M278.922 571.024L469.587 533.572C471.201 533.255 472.769 534.297 473.103 535.907L480.391 571.064C480.728 572.686 479.686 574.273 478.064 574.61L280.11 615.75C278.248 616.137 276.5 614.715 276.5 612.812V573.968C276.5 572.534 277.515 571.301 278.922 571.024Z" fill="black"/>
<path d="M185.367 597.174L68.5917 531.458C67.1567 530.651 66.6408 528.838 67.4358 527.396L86.0481 493.634C86.8494 492.18 88.6786 491.654 90.1302 492.458L191.329 548.573C192.348 549.139 192.948 550.243 192.867 551.406L189.831 594.769C189.677 596.967 187.287 598.255 185.367 597.174Z" fill="black"/>
<path d="M197.804 475.028L196.143 504.927C196.061 506.407 194.91 507.605 193.435 507.747L144.914 512.412C144.318 512.469 143.719 512.347 143.194 512.062L122.799 500.978C121.714 500.388 121.101 499.194 121.255 497.968L123.274 481.874C123.447 480.494 124.546 479.414 125.929 479.265L194.487 471.879C196.328 471.68 197.907 473.18 197.804 475.028Z" fill="black"/>
<path d="M279.963 495.723L281.063 464.756C281.116 463.271 282.248 462.048 283.725 461.882L334.199 456.181C334.909 456.101 335.625 456.277 336.217 456.678L356.042 470.099C356.988 470.739 357.489 471.861 357.333 472.993L355.09 489.254C354.901 490.626 353.797 491.69 352.42 491.829L283.263 498.814C281.453 498.997 279.899 497.54 279.963 495.723Z" fill="black"/>
<path d="M360.589 494.479L367.688 464.435C368.114 462.635 370.051 461.645 371.759 462.355L453.448 496.314C454.429 496.722 455.121 497.619 455.268 498.671L458.626 522.813C458.838 524.339 457.86 525.777 456.364 526.141L441.446 529.77C440.831 529.92 440.184 529.871 439.599 529.63L362.37 497.945C361.005 497.385 360.25 495.915 360.589 494.479Z" fill="black"/>
<path d="M61.9792 115.182L61.0889 56.8246C61.0517 54.3856 63.8551 52.73 66.0315 53.8316C82.6164 62.2263 143.148 86.4227 290.5 86.8398C437.991 87.2572 498.497 62.4696 515.015 53.8829C517.177 52.7591 520 54.3743 520 56.8108V115.11C520 115.764 519.808 116.37 519.351 116.838C514.12 122.188 474.165 155.531 290.5 155.995C106.217 156.461 67.4584 122.107 62.5736 116.801C62.1611 116.353 61.9885 115.791 61.9792 115.182Z" fill="black"/>
<path d="M278.486 164.913L232.375 163.583C230.768 163.537 229.428 164.504 229.314 166.108C226.126 210.849 182.982 816.425 182.5 827.5C182 839 183.677 859.03 222 860C259.018 860.937 259.044 831.605 259.003 829.607C259.001 829.531 259.001 829.462 259.004 829.386L281.398 168.013C281.454 166.352 280.148 164.961 278.486 164.913Z" fill="black"/>
<path d="M465.075 149.952L422.398 156.552C420.787 156.801 419.631 158 419.844 159.616C425.456 202.268 497.835 752.353 501 773.5C504.292 795.5 509 808.472 544.5 802.5C578.775 796.734 572.034 765.747 571.528 763.615C571.508 763.533 571.493 763.458 571.479 763.374L468.492 152.418C468.219 150.8 466.697 149.701 465.075 149.952Z" fill="black"/>
<path d="M166.007 158.53L120.836 151.445C119.25 151.196 117.809 151.946 117.49 153.52C109.575 192.631 12.115 674.164 7.49984 695C2.68916 716.719 2.43555 730.516 37.718 737.663C72.142 744.635 76.6925 712.553 76.8936 710.988C76.9 710.938 76.9051 710.904 76.9134 710.854L168.501 161.988C168.776 160.342 167.655 158.789 166.007 158.53Z" fill="black"/>
<path d="M364.481 162.612L316.376 164.394C314.769 164.453 313.496 165.475 313.488 167.083C313.319 203.864 311.387 621.349 310.834 642.606C310.256 664.843 312.64 678.436 348.638 678.719C383.819 678.996 382.1 646.526 382.003 645.052C382 645.005 381.999 644.976 381.998 644.929L367.591 165.52C367.541 163.855 366.145 162.55 364.481 162.612Z" fill="black"/>
<mask id="mask0_89_34" style="mask-type:alpha" maskUnits="userSpaceOnUse" x="61" y="0" width="459" height="76">
<path d="M520 38C520 57.5 412.5 76 278.5 76C180.5 76 61 58.9868 61 38C61 17.0132 173 0 287 0C423 0 520 18.5 520 38Z" fill="#FF0000"/>
</mask>
<g mask="url(#mask0_89_34)">
<path d="M71.0507 142.852L-26.0637 -8.50115L83.2572 -183.315L196.967 -167.721L263.727 -214.301L99.5715 225.033L71.0507 142.852Z" fill="#20A6DF"/>
<rect x="99.5725" y="225.033" width="469" height="110.962" transform="rotate(-69.5119 99.5725 225.033)" fill="#E7348B"/>
<rect x="203.514" y="263.871" width="469" height="110.962" transform="rotate(-69.5119 203.514 263.871)" fill="#F7A823"/>
<path d="M307.458 302.709L471.613 -136.625L505.997 -70.1342L554.646 75.9491L397.405 246.912L307.458 302.709Z" fill="#C1D566"/>
</g>
</svg>
