<svg width="357" height="48" viewBox="0 0 357 48" fill="none" xmlns="http://www.w3.org/2000/svg">
<path d="M306 18.95L311.5 18L316 19.3993L318 21.6459H304L306 18.95Z" fill="#20A6DF"/>
<rect x="304" y="21.6459" width="14" height="5.39189" fill="#E7348B"/>
<rect x="304" y="27.0378" width="14" height="5.39189" fill="#F7A823"/>
<path d="M304 32.4297H318L316.5 35.1257L311.5 37L306.5 35.575L304 32.4297Z" fill="#C1D566"/>
<path d="M330 18.95L335.5 18L340 19.3993L342 21.6459H328L330 18.95Z" fill="#20A6DF"/>
<rect x="328" y="21.6459" width="14" height="5.39189" fill="#E7348B"/>
<rect x="328" y="27.0378" width="14" height="5.39189" fill="#F7A823"/>
<path d="M328 32.4297H342L340.5 35.1257L335.5 37L330.5 35.575L328 32.4297Z" fill="#C1D566"/>
<path d="M187.568 24.9659V28.0909H174.841V24.9659H187.568ZM205.171 39V9.90909H208.523V20.6477H208.808C209.054 20.2689 209.395 19.786 209.83 19.1989C210.275 18.6023 210.91 18.072 211.734 17.608C212.567 17.1345 213.694 16.8977 215.114 16.8977C216.951 16.8977 218.571 17.357 219.972 18.2756C221.374 19.1941 222.468 20.4962 223.254 22.1818C224.04 23.8674 224.433 25.8561 224.433 28.1477C224.433 30.4583 224.04 32.4612 223.254 34.1562C222.468 35.8419 221.379 37.1487 219.987 38.0767C218.594 38.9953 216.989 39.4545 215.171 39.4545C213.77 39.4545 212.647 39.2225 211.805 38.7585C210.962 38.285 210.313 37.75 209.859 37.1534C209.404 36.5473 209.054 36.0455 208.808 35.6477H208.41V39H205.171ZM208.467 28.0909C208.467 29.7386 208.708 31.1922 209.191 32.4517C209.674 33.7017 210.379 34.6818 211.308 35.392C212.236 36.0928 213.372 36.4432 214.717 36.4432C216.118 36.4432 217.288 36.0739 218.225 35.3352C219.172 34.5871 219.882 33.5833 220.356 32.3239C220.839 31.0549 221.08 29.6439 221.08 28.0909C221.08 26.5568 220.844 25.1742 220.37 23.9432C219.906 22.7027 219.201 21.7225 218.254 21.0028C217.316 20.2737 216.137 19.9091 214.717 19.9091C213.353 19.9091 212.207 20.2547 211.279 20.946C210.351 21.6278 209.65 22.5843 209.177 23.8153C208.703 25.0369 208.467 26.4621 208.467 28.0909ZM235.981 39.5114C234.598 39.5114 233.344 39.2509 232.217 38.7301C231.09 38.1998 230.195 37.4375 229.532 36.4432C228.869 35.4394 228.538 34.2273 228.538 32.8068C228.538 31.5568 228.784 30.5436 229.276 29.767C229.769 28.9811 230.427 28.3655 231.251 27.9205C232.075 27.4754 232.984 27.1439 233.978 26.9261C234.982 26.6989 235.99 26.5189 237.004 26.3864C238.329 26.2159 239.404 26.0881 240.228 26.0028C241.061 25.9081 241.667 25.7519 242.046 25.5341C242.434 25.3163 242.629 24.9375 242.629 24.3977V24.2841C242.629 22.8826 242.245 21.7936 241.478 21.017C240.72 20.2405 239.57 19.8523 238.026 19.8523C236.426 19.8523 235.171 20.2027 234.262 20.9034C233.353 21.6042 232.714 22.3523 232.344 23.1477L229.163 22.0114C229.731 20.6856 230.488 19.6534 231.435 18.9148C232.392 18.1667 233.433 17.6458 234.56 17.3523C235.697 17.0492 236.814 16.8977 237.913 16.8977C238.613 16.8977 239.418 16.983 240.327 17.1534C241.246 17.3144 242.131 17.6506 242.984 18.1619C243.845 18.6733 244.56 19.4451 245.129 20.4773C245.697 21.5095 245.981 22.892 245.981 24.625V39H242.629V36.0455H242.458C242.231 36.5189 241.852 37.0256 241.322 37.5653C240.791 38.1051 240.086 38.5644 239.205 38.9432C238.325 39.322 237.25 39.5114 235.981 39.5114ZM236.492 36.5C237.818 36.5 238.935 36.2396 239.844 35.7188C240.763 35.1979 241.454 34.5256 241.918 33.7017C242.392 32.8778 242.629 32.0114 242.629 31.1023V28.0341C242.487 28.2045 242.174 28.3608 241.691 28.5028C241.218 28.6354 240.668 28.7538 240.043 28.858C239.428 28.9527 238.826 29.0379 238.239 29.1136C237.662 29.1799 237.193 29.2367 236.833 29.2841C235.962 29.3977 235.147 29.5824 234.39 29.8381C233.642 30.0843 233.036 30.4583 232.572 30.9602C232.117 31.4527 231.89 32.125 231.89 32.9773C231.89 34.142 232.321 35.0227 233.183 35.6193C234.054 36.2064 235.157 36.5 236.492 36.5ZM252.099 39V17.1818H255.338V20.4773H255.565C255.963 19.3977 256.683 18.5218 257.724 17.8494C258.766 17.1771 259.94 16.8409 261.247 16.8409C261.493 16.8409 261.801 16.8456 262.17 16.8551C262.54 16.8646 262.819 16.8788 263.009 16.8977V20.3068C262.895 20.2784 262.634 20.2358 262.227 20.179C261.83 20.1127 261.408 20.0795 260.963 20.0795C259.902 20.0795 258.955 20.3021 258.122 20.7472C257.298 21.1828 256.645 21.7888 256.162 22.5653C255.688 23.3324 255.452 24.2083 255.452 25.1932V39H252.099ZM282.437 22.0682L279.425 22.9205C279.236 22.4186 278.957 21.9309 278.587 21.4574C278.228 20.9744 277.735 20.5767 277.11 20.2642C276.485 19.9517 275.685 19.7955 274.71 19.7955C273.374 19.7955 272.262 20.1032 271.371 20.7188C270.491 21.3248 270.05 22.0966 270.05 23.0341C270.05 23.8674 270.353 24.5256 270.96 25.0085C271.566 25.4915 272.513 25.8939 273.8 26.2159L277.039 27.0114C278.99 27.4848 280.443 28.2093 281.4 29.1847C282.356 30.1506 282.835 31.3958 282.835 32.9205C282.835 34.1705 282.475 35.2879 281.755 36.2727C281.045 37.2576 280.05 38.0341 278.772 38.6023C277.494 39.1705 276.007 39.4545 274.312 39.4545C272.086 39.4545 270.245 38.9716 268.786 38.0057C267.328 37.0398 266.405 35.6288 266.016 33.7727L269.198 32.9773C269.501 34.1515 270.074 35.0322 270.917 35.6193C271.769 36.2064 272.882 36.5 274.255 36.5C275.817 36.5 277.058 36.1686 277.977 35.5057C278.905 34.8333 279.369 34.0284 279.369 33.0909C279.369 32.3333 279.103 31.6989 278.573 31.1875C278.043 30.6667 277.228 30.2784 276.13 30.0227L272.494 29.1705C270.496 28.697 269.028 27.9631 268.09 26.9688C267.162 25.965 266.698 24.7102 266.698 23.2045C266.698 21.9735 267.044 20.8845 267.735 19.9375C268.436 18.9905 269.388 18.2472 270.59 17.7074C271.802 17.1676 273.175 16.8977 274.71 16.8977C276.869 16.8977 278.564 17.3712 279.795 18.3182C281.035 19.2652 281.916 20.5152 282.437 22.0682ZM297.369 17.1818V20.0227H286.062V17.1818H297.369ZM289.358 11.9545H292.71V32.75C292.71 33.697 292.848 34.4072 293.122 34.8807C293.406 35.3447 293.766 35.6572 294.202 35.8182C294.647 35.9697 295.116 36.0455 295.608 36.0455C295.977 36.0455 296.28 36.0265 296.517 35.9886C296.754 35.9413 296.943 35.9034 297.085 35.875L297.767 38.8864C297.54 38.9716 297.223 39.0568 296.815 39.142C296.408 39.2367 295.892 39.2841 295.267 39.2841C294.32 39.2841 293.392 39.0805 292.483 38.6733C291.583 38.2661 290.835 37.6458 290.239 36.8125C289.652 35.9792 289.358 34.928 289.358 33.6591V11.9545ZM311.041 39.4545C309.071 39.4545 307.343 38.9858 305.857 38.0483C304.379 37.1108 303.224 35.7992 302.391 34.1136C301.567 32.428 301.155 30.4583 301.155 28.2045C301.155 25.9318 301.567 23.9479 302.391 22.2528C303.224 20.5578 304.379 19.2415 305.857 18.304C307.343 17.3665 309.071 16.8977 311.041 16.8977C313.011 16.8977 314.734 17.3665 316.212 18.304C317.698 19.2415 318.854 20.5578 319.678 22.2528C320.511 23.9479 320.928 25.9318 320.928 28.2045C320.928 30.4583 320.511 32.428 319.678 34.1136C318.854 35.7992 317.698 37.1108 316.212 38.0483C314.734 38.9858 313.011 39.4545 311.041 39.4545ZM311.041 36.4432C312.537 36.4432 313.768 36.0597 314.734 35.2926C315.7 34.5256 316.415 33.517 316.879 32.267C317.343 31.017 317.575 29.6629 317.575 28.2045C317.575 26.7462 317.343 25.3873 316.879 24.1278C316.415 22.8684 315.7 21.8504 314.734 21.0739C313.768 20.2973 312.537 19.9091 311.041 19.9091C309.545 19.9091 308.314 20.2973 307.348 21.0739C306.382 21.8504 305.667 22.8684 305.203 24.1278C304.739 25.3873 304.507 26.7462 304.507 28.2045C304.507 29.6629 304.739 31.017 305.203 32.267C305.667 33.517 306.382 34.5256 307.348 35.2926C308.314 36.0597 309.545 36.4432 311.041 36.4432ZM334.908 39.4545C332.939 39.4545 331.21 38.9858 329.724 38.0483C328.246 37.1108 327.091 35.7992 326.258 34.1136C325.434 32.428 325.022 30.4583 325.022 28.2045C325.022 25.9318 325.434 23.9479 326.258 22.2528C327.091 20.5578 328.246 19.2415 329.724 18.304C331.21 17.3665 332.939 16.8977 334.908 16.8977C336.878 16.8977 338.602 17.3665 340.079 18.304C341.566 19.2415 342.721 20.5578 343.545 22.2528C344.378 23.9479 344.795 25.9318 344.795 28.2045C344.795 30.4583 344.378 32.428 343.545 34.1136C342.721 35.7992 341.566 37.1108 340.079 38.0483C338.602 38.9858 336.878 39.4545 334.908 39.4545ZM334.908 36.4432C336.405 36.4432 337.636 36.0597 338.602 35.2926C339.567 34.5256 340.282 33.517 340.746 32.267C341.21 31.017 341.442 29.6629 341.442 28.2045C341.442 26.7462 341.21 25.3873 340.746 24.1278C340.282 22.8684 339.567 21.8504 338.602 21.0739C337.636 20.2973 336.405 19.9091 334.908 19.9091C333.412 19.9091 332.181 20.2973 331.215 21.0739C330.249 21.8504 329.534 22.8684 329.07 24.1278C328.606 25.3873 328.374 26.7462 328.374 28.2045C328.374 29.6629 328.606 31.017 329.07 32.267C329.534 33.517 330.249 34.5256 331.215 35.2926C332.181 36.0597 333.412 36.4432 334.908 36.4432ZM353.264 9.90909V39H349.912V9.90909H353.264Z" fill="black"/>
<g clip-path="url(#clip0_88_9)">
<path d="M18.0715 38.4928V24.3183C18.0554 22.0895 17.4248 20.2768 16.1797 18.8803C14.9347 17.4838 13.1721 16.7638 10.8919 16.7204C9.76324 16.7239 8.67542 16.9621 7.62839 17.4353C6.58135 17.9085 5.73828 18.5961 5.09919 19.4981V9H0V38.4928H5.09919V27.3003C5.08984 25.9114 5.43488 24.6042 6.13433 23.3788C6.83376 22.1533 7.94368 21.4997 9.4641 21.418C10.7882 21.43 11.7094 21.784 12.2279 22.4801C12.7463 23.1762 12.9944 24.143 12.9723 25.3804V38.4928H18.0715Z" fill="black"/>
<path d="M36.1351 38.2069V33.9178C35.4569 33.9978 34.8654 34.0522 34.3606 34.0812C33.8558 34.1101 33.3459 34.1237 32.8308 34.122C32.0184 34.1271 31.4201 33.9433 31.0359 33.5705C30.6518 33.1978 30.4614 32.6055 30.4648 31.7936V21.4589H35.8088V17.2515H30.4648V10.5931L25.3656 11.8594V17.2515H21.4902V21.4589H25.3656V32.243C25.3648 34.3024 25.8968 35.9023 26.9617 37.0427C28.0265 38.1831 29.6294 38.7617 31.7702 38.7788C32.5232 38.7779 33.2609 38.7286 33.9833 38.6307C34.7056 38.5328 35.4229 38.3916 36.1351 38.2069Z" fill="black"/>
<path d="M67.8071 17.2515H62.9526L59.6891 31.14L55.2018 17.4557H51.0001L46.5536 31.1809L43.1677 17.2515H38.2317L43.6165 38.4928H48.3485L53.0806 24.1549L57.8942 38.4928H62.6263L67.8071 17.2515Z" fill="black"/>
<path d="M96.9533 31.9162C96.921 30.2337 96.3737 28.8806 95.3113 27.8568C94.249 26.8331 92.8654 26.1846 91.1606 25.9114C90.1815 25.7582 89.4065 25.6459 88.8354 25.5744C88.2643 25.5029 87.53 25.411 86.6325 25.2987C86.0308 25.2332 85.4801 25.0476 84.9804 24.7421C84.4807 24.4366 84.2155 23.9141 84.1849 23.1745C84.1968 22.6214 84.3566 22.155 84.6642 21.7755C84.9719 21.3959 85.356 21.1134 85.8167 20.9279C86.2016 20.7713 86.5739 20.676 86.9334 20.6419C87.2929 20.6079 87.6549 20.5943 88.0195 20.6011C88.5609 20.6036 89.0793 20.6904 89.5748 20.8615C90.0702 21.0325 90.4764 21.2725 90.7935 21.5814C91.0433 21.8461 91.2473 22.144 91.4054 22.475C91.5634 22.8061 91.645 23.1754 91.6501 23.583H96.5046C96.4977 22.7984 96.3278 22.0291 95.9946 21.2751C95.6615 20.5211 95.2059 19.8335 94.6281 19.2122C93.8309 18.3757 92.845 17.751 91.6705 17.3383C90.496 16.9255 89.2654 16.7196 87.9787 16.7204C86.647 16.7247 85.4351 16.9102 84.343 17.277C83.2509 17.6438 82.3143 18.1663 81.5333 18.8446C80.89 19.3909 80.3716 20.0547 79.9781 20.8359C79.5846 21.6172 79.3823 22.5465 79.3713 23.6239C79.3925 25.0017 79.8395 26.2084 80.7124 27.2441C81.5852 28.2798 82.7563 28.9657 84.2257 29.3019C85.1741 29.4967 86.1532 29.6482 87.1628 29.7563C88.1725 29.8644 89.1515 29.9852 90.1 30.1188C90.7595 30.2252 91.2762 30.472 91.6501 30.8592C92.0241 31.2464 92.2144 31.7485 92.2212 32.3655C92.1481 33.4965 91.6416 34.2369 90.7017 34.5867C89.7617 34.9364 88.8269 35.0947 87.8971 35.0615C87.1713 35.0632 86.5526 34.9883 86.041 34.8369C85.5294 34.6854 85.0739 34.4471 84.6744 34.122C84.3413 33.8446 84.0693 33.4803 83.8586 33.0293C83.6478 32.5783 83.539 32.1119 83.5322 31.6302H78.7594C78.7764 32.6378 78.9973 33.5637 79.4223 34.408C79.8472 35.2522 80.3741 35.9738 81.003 36.5729C81.8877 37.4078 82.9127 38.0256 84.0778 38.4264C85.243 38.8273 86.5025 39.0264 87.8563 39.0239C89.3189 39.029 90.677 38.8349 91.9306 38.4418C93.1841 38.0486 94.2464 37.4257 95.1176 36.5729C95.6759 36.024 96.1196 35.3653 96.4485 34.5969C96.7773 33.8284 96.9456 32.9348 96.9533 31.9162Z" fill="black"/>
<path d="M120.226 38.2477V34.4896C120.219 34.493 120.151 34.5067 120.022 34.5305C119.893 34.5543 119.743 34.5679 119.573 34.5713C119.149 34.5764 118.845 34.4743 118.66 34.265C118.476 34.0556 118.386 33.7084 118.39 33.2233V25.3395C118.398 24.6195 118.362 23.8945 118.283 23.1643C118.204 22.4341 118.036 21.7295 117.778 21.0504C117.138 19.476 116.113 18.3561 114.703 17.6906C113.293 17.0251 111.667 16.7017 109.823 16.7204C107.404 16.7094 105.379 17.2625 103.75 18.3799C102.121 19.4973 101.208 21.2453 101.012 23.6238H105.948C106.015 22.6401 106.381 21.8912 107.044 21.3772C107.708 20.8632 108.634 20.6045 109.823 20.601C111.24 20.6155 112.2 20.9236 112.704 21.5252C113.208 22.1269 113.445 22.9354 113.413 23.9506V25.2578L107.172 25.7071C105.106 25.8569 103.404 26.4969 102.067 27.627C100.731 28.7572 100.039 30.3367 99.9921 32.3655C99.9953 34.162 100.641 35.7057 101.93 36.9967C103.218 38.2877 105.129 38.9634 107.661 39.0238C109.189 38.9983 110.518 38.6817 111.649 38.0741C112.779 37.4665 113.598 36.721 114.107 35.8376C114.19 36.6589 114.533 37.355 115.137 37.926C115.74 38.4971 116.593 38.7949 117.696 38.8196C118.284 38.8187 118.751 38.7694 119.099 38.6715C119.446 38.5737 119.822 38.4324 120.226 38.2477ZM113.413 30.0371C113.386 31.6158 112.879 32.8191 111.894 33.6471C110.908 34.4752 109.606 34.8922 107.988 34.8981C107.166 34.8896 106.464 34.6513 105.882 34.1833C105.299 33.7152 104.995 33.0684 104.969 32.2429C104.999 31.3843 105.316 30.7222 105.917 30.2567C106.519 29.7912 107.223 29.5274 108.028 29.4652L113.413 29.0567V30.0371Z" fill="black"/>
<path d="M143.172 38.2477V34.4896C143.165 34.493 143.097 34.5067 142.968 34.5305C142.839 34.5543 142.69 34.5679 142.52 34.5713C142.096 34.5764 141.791 34.4743 141.607 34.265C141.422 34.0556 141.332 33.7084 141.337 33.2233V25.3395C141.344 24.6195 141.309 23.8945 141.23 23.1643C141.15 22.4341 140.982 21.7295 140.725 21.0504C140.085 19.476 139.06 18.3561 137.65 17.6906C136.24 17.0251 134.613 16.7017 132.77 16.7204C130.35 16.7094 128.326 17.2625 126.697 18.3799C125.068 19.4973 124.155 21.2453 123.959 23.6238H128.895C128.962 22.6401 129.327 21.8912 129.991 21.3772C130.655 20.8632 131.581 20.6045 132.77 20.601C134.187 20.6155 135.147 20.9236 135.651 21.5252C136.155 22.1269 136.391 22.9354 136.36 23.9506V25.2578L130.118 25.7071C128.052 25.8569 126.351 26.4969 125.014 27.627C123.677 28.7572 122.985 30.3367 122.939 32.3655C122.942 34.162 123.588 35.7057 124.876 36.9967C126.165 38.2877 128.075 38.9634 130.608 39.0238C132.136 38.9983 133.465 38.6817 134.595 38.0741C135.726 37.4665 136.545 36.721 137.053 35.8376C137.137 36.6589 137.48 37.355 138.083 37.926C138.687 38.4971 139.54 38.7949 140.643 38.8196C141.23 38.8187 141.698 38.7694 142.045 38.6715C142.393 38.5737 142.769 38.4324 143.172 38.2477ZM136.36 30.0371C136.333 31.6158 135.826 32.8191 134.84 33.6471C133.854 34.4752 132.552 34.8922 130.934 34.8981C130.112 34.8896 129.41 34.6513 128.828 34.1833C128.246 33.7152 127.942 33.0684 127.916 32.2429C127.946 31.3843 128.262 30.7222 128.864 30.2567C129.466 29.7912 130.169 29.5274 130.975 29.4652L136.36 29.0567V30.0371Z" fill="black"/>
<path d="M160 21.9899V17.0881C159.47 17.0064 158.939 16.9655 158.409 16.9655C157.132 16.957 155.944 17.2294 154.845 17.7825C153.746 18.3357 152.935 19.2207 152.412 20.4377L151.964 17.2515H147.64V38.4928H152.78V27.7905C152.783 26.0391 153.245 24.6094 154.167 23.5013C155.088 22.3933 156.448 21.8214 158.246 21.7857C158.533 21.7865 158.826 21.8053 159.123 21.8418C159.42 21.8785 159.713 21.9278 160 21.9899Z" fill="black"/>
</g>
<defs>
<clipPath id="clip0_88_9">
<rect width="160" height="30.0315" fill="white" transform="translate(0 9)"/>
</clipPath>
</defs>
</svg>
